<svg width="30" height="30" xmlns="http://www.w3.org/2000/svg" xmlns:xlink="http://www.w3.org/1999/xlink">
 <defs>
  <path id="cog" fill="white" transform="scale(0.4) " d="m213,0l-4,39l-5,39l-20,9l-20,9l-32,-26l-31,-25l-27,27l-27,27l25,31l25,32l-9,19l-9,19l-35,5c-20,3 -37,5 -40,6c-3,1 -4,12 -4,39l0,37l39,4c24,3 40,6 40,8c0,2 3,12 8,21l8,18l-25,30l-25,31l27,27l27,27l30,-23l30,-24l18,9c10,5 20,10 22,10c1,1 4,16 7,34c2,18 4,34 5,37c1,3 11,4 38,4l38,0l4,-36c3,-28 5,-37 10,-38c3,-1 13,-5 23,-10l17,-8l29,24l30,23l26,-27c20,-20 26,-28 24,-31c-2,-3 -13,-16 -23,-29l-20,-25l9,-18c5,-10 8,-20 8,-22c0,-4 8,-6 52,-11l22,-3l1,-38l1,-38l-38,-4c-23,-3 -38,-6 -38,-8c0,-2 -3,-12 -8,-22l-9,-19l24,-29l24,-30l-27,-27l-27,-27l-30,24l-30,24l-21,-9l-21,-9l-5,-37l-5,-38l-38,-1l-38,-1zm37,170c44,0 80,36 80,80c0,44 -36,80 -80,80c-44,0 -80,-36 -80,-80c0,-44 36,-80 80,-80z"/>
 </defs>
 <g>
  <title>Layer 1</title>
  <use xlink:href="#cog" fill="black" transform="translate(0,0) scale(0.5) translate(0,0) translate(0,0) scale(1.0102940797805786) translate(0,0) translate(0,0) scale(0.29828330874443054) translate(0,0) translate(0,0) scale(1.0057636499404907) translate(0,0) "/>
 </g>
</svg>
